<svg xmlns="http://www.w3.org/2000/svg" xmlns:xlink="http://www.w3.org/1999/xlink" width="2000" zoomAndPan="magnify" viewBox="0 0 1500 1499.999933" height="2000" preserveAspectRatio="xMidYMid meet" version="1.0"><defs><g/><clipPath id="f43b4dd5eb"><rect x="0" width="701" y="0" height="568"/></clipPath><clipPath id="656985d6ae"><path d="M 0.238281 48 L 303.601562 48 L 303.601562 317 L 0.238281 317 Z M 0.238281 48 " clip-rule="nonzero"/></clipPath><clipPath id="b722c78b11"><rect x="0" width="304" y="0" height="365"/></clipPath><clipPath id="6a3f5e6c23"><rect x="0" width="579" y="0" height="569"/></clipPath></defs><rect x="-150" width="1800" fill="#ffffff" y="-149.999993" height="1799.99992" fill-opacity="1"/><rect x="-150" width="1800" fill="#ffffff" y="-149.999993" height="1799.99992" fill-opacity="1"/><g transform="matrix(1, 0, 0, 1, 109, 437)"><g clip-path="url(#f43b4dd5eb)"><g fill="#10b981" fill-opacity="1"><g transform="translate(13.862415, 480.497453)"><g><path d="M 369.761719 10.667969 L 34.84375 10.667969 L 34.84375 -266.65625 L 169.949219 -266.65625 L 169.949219 -113.773438 L 159.28125 -113.773438 L 159.28125 -124.441406 L 312.875 -124.441406 L 312.875 -113.773438 L 302.207031 -113.773438 L 302.207031 -284.433594 L 312.875 -284.433594 L 312.875 -273.765625 L -7.824219 -273.765625 L -7.824219 -408.871094 L 374.179688 -408.871094 L 437.316406 -345.738281 L 437.316406 -52.46875 L 374.179688 10.667969 Z M 369.761719 -10.667969 L 369.761719 0 L 362.21875 -7.542969 L 419.105469 -64.429688 L 426.648438 -56.886719 L 415.980469 -56.886719 L 415.980469 -341.320312 L 426.648438 -341.320312 L 419.105469 -333.777344 L 362.21875 -390.664062 L 369.761719 -398.203125 L 369.761719 -387.539062 L 2.84375 -387.539062 L 2.84375 -398.203125 L 13.511719 -398.203125 L 13.511719 -284.433594 L 2.84375 -284.433594 L 2.84375 -295.097656 L 323.542969 -295.097656 L 323.542969 -103.105469 L 148.617188 -103.105469 L 148.617188 -255.988281 L 159.28125 -255.988281 L 159.28125 -245.320312 L 45.507812 -245.320312 L 45.507812 -255.988281 L 56.175781 -255.988281 L 56.175781 0 L 45.507812 0 L 45.507812 -10.667969 Z M 369.761719 -10.667969 "/></g></g></g><g fill="#10b981" fill-opacity="1"><g transform="translate(468.938011, 480.497453)"><g/></g></g></g></g><g transform="matrix(1, 0, 0, 1, 594, 664)"><g clip-path="url(#b722c78b11)"><g clip-path="url(#656985d6ae)"><g fill="#10b981" fill-opacity="1"><g transform="translate(7.201857, 309.135807)"><g><path d="M 195.019531 -131.203125 L 298.726562 6.808594 L 190.90625 6.808594 L 138.742188 -62.359375 L 144.179688 -66.460938 L 149.632812 -62.378906 L 97.835938 6.808594 L -10.003906 6.808594 L 93.703125 -131.203125 L 99.148438 -127.109375 L 93.703125 -123.019531 L -10.003906 -261.03125 L 97.84375 -261.03125 L 149.640625 -191.464844 L 144.179688 -187.398438 L 138.734375 -191.484375 L 190.894531 -261.03125 L 298.726562 -261.03125 L 195.019531 -123.019531 L 189.578125 -127.109375 Z M 181.058594 -127.109375 L 279.648438 -258.3125 L 285.09375 -254.222656 L 285.09375 -247.414062 L 194.296875 -247.414062 L 194.296875 -254.222656 L 199.746094 -250.136719 L 144.160156 -176.023438 L 88.964844 -250.15625 L 94.425781 -254.222656 L 94.425781 -247.414062 L 3.632812 -247.414062 L 3.632812 -254.222656 L 9.074219 -258.3125 L 107.664062 -127.109375 L 9.074219 4.089844 L 3.632812 0 L 3.632812 -6.808594 L 94.425781 -6.808594 L 94.425781 0 L 88.972656 -4.082031 L 144.160156 -77.796875 L 199.734375 -4.101562 L 194.296875 0 L 194.296875 -6.808594 L 285.09375 -6.808594 L 285.09375 0 L 279.648438 4.089844 L 184.132812 -123.019531 Z M 221.542969 -24.960938 L 144.738281 -127.109375 L 221.542969 -229.261719 L 226.984375 -225.167969 L 226.984375 -218.359375 L 208.824219 -218.359375 L 208.824219 -225.167969 L 214.269531 -221.078125 L 144.164062 -127.734375 L 74.441406 -221.09375 L 79.898438 -225.167969 L 79.898438 -218.359375 L 77.886719 -218.359375 L 77.886719 -231.976562 L 77.914062 -231.976562 L 77.914062 -218.359375 L 61.738281 -218.359375 L 61.738281 -225.167969 L 67.167969 -229.28125 L 105.84375 -178.257812 C 118.824219 -161.152344 130.53125 -145.441406 140.96875 -131.121094 L 143.9375 -127.046875 L 67.183594 -24.960938 L 61.738281 -29.054688 L 61.738281 -35.863281 L 79.898438 -35.863281 L 79.898438 -29.054688 L 74.441406 -33.125 L 143.769531 -126.09375 L 214.25 -33.167969 L 208.824219 -29.054688 L 208.824219 -35.863281 L 211.050781 -35.863281 L 211.050781 -22.246094 L 210.960938 -22.246094 L 210.960938 -35.863281 L 226.984375 -35.863281 L 226.984375 -29.054688 Z M 232.425781 -33.144531 L 240.625 -22.246094 L 210.960938 -22.246094 C 210.058594 -22.246094 209.191406 -22.417969 208.355469 -22.761719 C 207.523438 -23.109375 206.785156 -23.601562 206.148438 -24.238281 C 205.507812 -24.878906 205.015625 -25.613281 204.671875 -26.449219 C 204.324219 -27.28125 204.152344 -28.152344 204.152344 -29.054688 C 204.152344 -29.957031 204.324219 -30.824219 204.671875 -31.660156 C 205.015625 -32.496094 205.507812 -33.230469 206.148438 -33.871094 C 206.785156 -34.507812 207.523438 -35 208.355469 -35.34375 C 209.191406 -35.691406 210.058594 -35.863281 210.960938 -35.863281 L 211.050781 -35.863281 C 211.953125 -35.863281 212.820312 -35.691406 213.65625 -35.34375 C 214.492188 -35 215.226562 -34.507812 215.863281 -33.871094 C 216.503906 -33.230469 216.996094 -32.496094 217.339844 -31.660156 C 217.6875 -30.824219 217.859375 -29.957031 217.859375 -29.054688 C 217.859375 -28.152344 217.6875 -27.28125 217.339844 -26.449219 C 216.996094 -25.613281 216.503906 -24.878906 215.863281 -24.238281 C 215.226562 -23.601562 214.492188 -23.109375 213.65625 -22.761719 C 212.820312 -22.417969 211.953125 -22.246094 211.050781 -22.246094 L 205.445312 -22.246094 L 138.390625 -110.648438 L 143.816406 -114.761719 L 149.277344 -110.691406 L 83.316406 -22.246094 L 48.101562 -22.246094 L 130.019531 -131.203125 L 135.464844 -127.109375 L 129.960938 -123.101562 C 119.574219 -137.351562 107.917969 -152.992188 94.992188 -170.027344 L 48.03125 -231.976562 L 77.914062 -231.976562 C 78.816406 -231.976562 79.683594 -231.804688 80.519531 -231.460938 C 81.351562 -231.113281 82.089844 -230.621094 82.726562 -229.984375 C 83.367188 -229.34375 83.859375 -228.609375 84.203125 -227.773438 C 84.550781 -226.941406 84.722656 -226.070312 84.722656 -225.167969 C 84.722656 -224.265625 84.550781 -223.398438 84.203125 -222.5625 C 83.859375 -221.726562 83.367188 -220.992188 82.726562 -220.351562 C 82.089844 -219.714844 81.351562 -219.222656 80.519531 -218.878906 C 79.683594 -218.53125 78.816406 -218.359375 77.914062 -218.359375 L 77.886719 -218.359375 C 76.984375 -218.359375 76.117188 -218.53125 75.28125 -218.878906 C 74.445312 -219.222656 73.710938 -219.714844 73.070312 -220.351562 C 72.433594 -220.992188 71.941406 -221.726562 71.597656 -222.5625 C 71.25 -223.398438 71.078125 -224.265625 71.078125 -225.167969 C 71.078125 -226.070312 71.25 -226.941406 71.597656 -227.773438 C 71.941406 -228.609375 72.433594 -229.34375 73.070312 -229.984375 C 73.710938 -230.621094 74.445312 -231.113281 75.28125 -231.460938 C 76.117188 -231.804688 76.984375 -231.976562 77.886719 -231.976562 L 83.3125 -231.976562 L 149.636719 -143.171875 L 144.179688 -139.097656 L 138.734375 -143.183594 L 205.421875 -231.976562 L 240.625 -231.976562 L 158.703125 -123.019531 L 153.261719 -127.109375 L 158.703125 -131.203125 Z M 232.425781 -33.144531 "/></g></g></g></g></g></g><g transform="matrix(1, 0, 0, 1, 921, 684)"><g clip-path="url(#6a3f5e6c23)"><g fill="#10b981" fill-opacity="1"><g transform="translate(13.116867, 481.078204)"><g><path d="M 369.761719 10.667969 L 34.84375 10.667969 L 34.84375 -266.65625 L 169.949219 -266.65625 L 169.949219 -113.773438 L 159.28125 -113.773438 L 159.28125 -124.441406 L 312.875 -124.441406 L 312.875 -113.773438 L 302.207031 -113.773438 L 302.207031 -284.433594 L 312.875 -284.433594 L 312.875 -273.765625 L -7.824219 -273.765625 L -7.824219 -408.871094 L 374.179688 -408.871094 L 437.316406 -345.738281 L 437.316406 -52.46875 L 374.179688 10.667969 Z M 369.761719 -10.667969 L 369.761719 0 L 362.21875 -7.542969 L 419.105469 -64.429688 L 426.648438 -56.886719 L 415.980469 -56.886719 L 415.980469 -341.320312 L 426.648438 -341.320312 L 419.105469 -333.777344 L 362.21875 -390.664062 L 369.761719 -398.203125 L 369.761719 -387.539062 L 2.84375 -387.539062 L 2.84375 -398.203125 L 13.511719 -398.203125 L 13.511719 -284.433594 L 2.84375 -284.433594 L 2.84375 -295.097656 L 323.542969 -295.097656 L 323.542969 -103.105469 L 148.617188 -103.105469 L 148.617188 -255.988281 L 159.28125 -255.988281 L 159.28125 -245.320312 L 45.507812 -245.320312 L 45.507812 -255.988281 L 56.175781 -255.988281 L 56.175781 0 L 45.507812 0 L 45.507812 -10.667969 Z M 369.761719 -10.667969 "/></g></g></g><g fill="#10b981" fill-opacity="1"><g transform="translate(468.192463, 481.078204)"><g/></g></g></g></g></svg>